<svg width="651" height="223" viewBox="0 0 651 223" fill="none" xmlns="http://www.w3.org/2000/svg">
<path d="M78.96 94.58L84.21 70.64C77.07 58.46 39.69 49.43 24.99 64.34C3.36 85.97 19.53 108.65 46.41 116.42C60.48 120.62 76.23 123.77 80.01 134.69C80.64 136.79 80.64 138.89 80.43 140.78C79.8 143.51 78.12 146.24 76.23 148.34C75.18 149.39 73.92 150.44 72.45 151.49C69.51 153.17 66.78 154.43 63.42 155.27C57.33 156.95 50.19 157.37 43.26 155.9C36.12 154.43 29.19 151.28 23.52 145.82C19.74 142.46 10.92 130.28 11.97 125.24L10.29 124.82L5.25 148.13L6.93 149.18C18.9 156.32 30.03 159.68 40.11 160.52C50.61 161.15 64.26 158.63 73.29 152.75C77.7 150.23 81.69 146.03 84.42 141.2C90.09 131.12 88.62 120.62 80.43 112.43C75.39 107.6 67.62 103.4 56.28 100.25C40.95 96.26 31.92 91.43 27.09 86.6C20.79 80.3 20.37 71.27 26.25 65.39C45.15 45.86 78.33 77.15 77.91 94.58H78.96ZM187.601 156.11C186.341 156.11 182.771 153.8 182.771 139.94V56.78H163.451V58.67C164.711 58.67 168.281 60.98 168.281 74.84C168.281 101.51 164.291 120.83 158.201 134.27C153.791 143.51 143.291 157.58 131.321 153.59C119.561 149.6 118.091 129.02 118.091 118.94V56.78H98.5605V58.67C99.8205 58.67 103.391 60.98 103.391 74.84V118.94C103.391 137.84 108.221 158.84 131.111 158.84C144.971 158.84 154.421 146.45 159.881 134.9C163.451 126.92 166.391 116.42 168.281 103.82V158H187.601V156.11ZM217.763 6.16999L198.023 13.52L198.653 15.41C199.703 15.41 202.223 16.88 203.063 24.23V158H204.953C204.953 153.8 209.993 151.7 216.503 154.01L217.763 154.64C227.003 158.21 235.193 159.89 242.543 159.68C259.343 159.89 273.623 152.54 283.913 141.83C309.113 115.79 313.313 63.5 269.633 55.94C261.443 54.68 253.253 55.73 245.903 59.93C245.063 60.35 244.223 60.77 243.383 61.4C237.713 64.97 232.463 71.06 228.053 79.25C223.433 88.07 219.653 99.2 217.763 112.43V6.16999ZM217.763 152.96V131.96C217.763 127.97 217.973 124.19 218.393 120.41C218.603 117.47 219.023 114.32 219.653 111.17C221.753 98.36 226.163 84.71 233.303 74.21C236.873 68.75 241.283 64.34 246.743 61.19C256.193 56.36 265.223 59.09 272.363 66.44C288.113 81.98 285.803 118.52 275.513 137.21C268.373 150.02 257.453 157.79 242.753 158.21C234.983 158 226.583 156.53 217.763 152.96ZM337.847 156.11C336.587 156.11 333.017 153.8 333.017 139.94V6.37999L313.277 13.73L313.907 15.62C314.957 15.62 317.267 17.09 318.317 24.44V139.94C318.317 153.8 314.747 156.11 313.487 156.11V158H337.847V156.11ZM348.976 66.02C350.026 66.02 352.546 67.49 353.596 75.05V139.94C353.596 153.8 350.026 156.11 348.556 156.11V158H372.916V156.11C371.656 156.11 368.086 153.8 368.086 139.94V56.78L348.346 64.34L348.976 66.02ZM359.266 39.77C364.726 39.77 369.136 35.36 369.136 29.9C369.136 24.44 364.726 20.03 359.266 20.03C353.806 20.03 349.396 24.44 349.396 29.9C349.396 35.36 353.806 39.77 359.266 39.77ZM532.514 95.84C532.514 76.94 527.684 55.94 504.794 55.94C490.934 55.94 481.274 68.33 476.024 79.88C472.244 88.07 469.304 98.36 467.624 111.17V95.84C467.624 76.94 463.004 55.94 439.904 55.94C426.044 55.94 416.594 68.33 411.134 79.88C407.564 88.07 404.624 98.36 402.734 111.17V56.78H383.414V58.67C384.674 58.67 388.244 61.19 388.244 74.84V139.94C388.244 153.8 384.674 156.11 383.414 156.11V158H407.564V156.11C406.304 156.11 402.734 153.8 402.734 139.94C402.734 113.48 406.724 93.95 412.814 80.72C417.224 71.27 427.724 57.2 439.694 61.19C451.454 65.18 452.924 85.76 452.924 95.84V139.94C452.924 153.8 449.354 156.11 448.094 156.11V158H472.454V156.11C471.194 156.11 467.624 153.8 467.624 139.94C467.624 113.48 471.614 93.95 477.704 80.72C482.114 71.27 492.614 57.2 504.584 61.19C516.344 65.18 517.814 85.76 517.814 95.84V139.94C517.814 153.8 514.244 156.11 512.984 156.11V158H537.344V156.11C536.084 156.11 532.514 153.8 532.514 139.94V95.84ZM546.701 120.83C561.611 176.27 643.301 165.98 640.151 120.41C639.101 105.71 628.391 92.69 612.641 93.11C622.091 90.8 634.691 90.17 644.771 90.17C638.051 67.91 612.011 50.27 583.031 58.04C555.731 65.39 539.351 93.53 546.701 120.83ZM559.091 105.71C561.611 106.97 564.551 107.39 567.491 107.6C575.471 108.23 585.551 105.92 595.631 100.04C616.631 87.86 632.801 98.36 637.421 113.69C650.021 155.69 577.361 177.74 560.981 117.05C560.141 113.48 559.511 109.7 559.091 105.71ZM628.601 89.12C618.941 89.75 606.341 92.06 594.791 98.78C584.921 104.45 575.261 106.55 567.491 106.13C564.551 105.92 561.611 105.29 559.091 104.03C558.041 85.55 564.551 64.55 583.451 59.51C603.821 54.05 620.621 71.27 628.601 89.12Z" fill="#402F23"/>
<path d="M108.024 181.926V207H105.294V181.926H108.024ZM118.188 181.758V183.018H95.13V181.758H118.188ZM118.188 182.934V185.832H117.726V185.16C117.726 184.572 117.53 184.082 117.138 183.69C116.774 183.27 116.27 183.046 115.626 183.018V182.934H118.188ZM118.188 181.086V182.178L113.484 181.758C114.044 181.758 114.632 181.73 115.248 181.674C115.892 181.59 116.48 181.492 117.012 181.38C117.544 181.268 117.936 181.17 118.188 181.086ZM105.378 204.312V207H102.312V206.58C102.34 206.58 102.424 206.58 102.564 206.58C102.732 206.58 102.816 206.58 102.816 206.58C103.488 206.58 104.062 206.356 104.538 205.908C105.014 205.46 105.266 204.928 105.294 204.312H105.378ZM107.898 204.312H108.024C108.052 204.928 108.304 205.46 108.78 205.908C109.256 206.356 109.83 206.58 110.502 206.58C110.502 206.58 110.572 206.58 110.712 206.58C110.88 206.58 110.964 206.58 110.964 206.58V207H107.898V204.312ZM97.692 182.934V183.018C97.048 183.046 96.53 183.27 96.138 183.69C95.774 184.082 95.592 184.572 95.592 185.16V185.832H95.13V182.934H97.692ZM95.13 181.086C95.382 181.17 95.76 181.268 96.264 181.38C96.796 181.492 97.384 181.59 98.028 181.674C98.672 181.73 99.274 181.758 99.834 181.758L95.13 182.178V181.086ZM139.025 181.8H144.443C145.759 181.8 146.935 181.954 147.971 182.262C149.035 182.57 149.931 183.018 150.659 183.606C151.415 184.194 151.989 184.908 152.381 185.748C152.773 186.588 152.969 187.54 152.969 188.604C152.969 189.78 152.689 190.872 152.129 191.88C151.569 192.888 150.785 193.714 149.777 194.358C148.797 195.002 147.677 195.394 146.417 195.534C146.893 195.73 147.439 196.164 148.055 196.836C148.699 197.508 149.245 198.166 149.693 198.81C149.693 198.81 149.875 199.062 150.239 199.566C150.603 200.042 151.065 200.644 151.625 201.372C152.213 202.072 152.787 202.744 153.347 203.388C153.935 204.032 154.467 204.592 154.943 205.068C155.447 205.544 155.979 205.922 156.539 206.202C157.127 206.454 157.799 206.58 158.555 206.58V207H157.253C155.713 207 154.439 206.804 153.431 206.412C152.451 206.02 151.653 205.544 151.037 204.984C150.421 204.396 149.889 203.836 149.441 203.304C149.329 203.164 149.063 202.814 148.643 202.254C148.251 201.666 147.817 201.036 147.341 200.364C146.865 199.692 146.431 199.09 146.039 198.558C145.647 197.998 145.409 197.662 145.325 197.55C144.765 196.822 144.121 196.178 143.393 195.618C142.665 195.03 141.895 194.736 141.083 194.736V194.316C141.083 194.316 141.307 194.33 141.755 194.358C142.203 194.358 142.777 194.344 143.477 194.316C144.261 194.288 145.045 194.232 145.829 194.148C146.613 194.036 147.341 193.728 148.013 193.224C148.713 192.72 149.259 191.88 149.651 190.704C149.763 190.396 149.847 190.032 149.903 189.612C149.959 189.192 149.973 188.758 149.945 188.31C149.917 187.526 149.763 186.826 149.483 186.21C149.231 185.594 148.853 185.062 148.349 184.614C147.873 184.166 147.299 183.816 146.627 183.564C145.955 183.312 145.199 183.172 144.359 183.144C143.043 183.088 141.895 183.074 140.915 183.102C139.935 183.13 139.445 183.13 139.445 183.102C139.445 183.074 139.403 182.962 139.319 182.766C139.263 182.542 139.193 182.332 139.109 182.136C139.053 181.912 139.025 181.8 139.025 181.8ZM139.529 181.8V207H136.841V181.8H139.529ZM136.967 204.312L137.471 207H133.901V206.58C133.901 206.58 133.999 206.58 134.195 206.58C134.391 206.58 134.489 206.58 134.489 206.58C135.161 206.58 135.721 206.356 136.169 205.908C136.617 205.46 136.855 204.928 136.883 204.312H136.967ZM136.967 184.446H136.883C136.855 183.802 136.617 183.27 136.169 182.85C135.721 182.43 135.161 182.22 134.489 182.22C134.489 182.22 134.391 182.22 134.195 182.22C133.999 182.22 133.901 182.22 133.901 182.22V181.8H137.471L136.967 184.446ZM139.403 204.312H139.529C139.557 204.928 139.795 205.46 140.243 205.908C140.691 206.356 141.251 206.58 141.923 206.58C141.923 206.58 142.007 206.58 142.175 206.58C142.371 206.58 142.469 206.58 142.469 206.58L142.511 207H138.899L139.403 204.312ZM179.133 181.8V207H176.487V181.8H179.133ZM176.613 204.312V207H173.043V206.58C173.043 206.58 173.141 206.58 173.337 206.58C173.533 206.58 173.631 206.58 173.631 206.58C174.415 206.58 175.073 206.356 175.605 205.908C176.165 205.46 176.459 204.928 176.487 204.312H176.613ZM179.007 204.312H179.133C179.161 204.928 179.441 205.46 179.973 205.908C180.533 206.356 181.205 206.58 181.989 206.58C181.989 206.58 182.073 206.58 182.241 206.58C182.437 206.58 182.535 206.58 182.535 206.58L182.577 207H179.007V204.312ZM179.007 184.488V181.8H182.577L182.535 182.22C182.535 182.22 182.437 182.22 182.241 182.22C182.073 182.22 181.989 182.22 181.989 182.22C181.205 182.22 180.533 182.444 179.973 182.892C179.441 183.312 179.161 183.844 179.133 184.488H179.007ZM176.613 184.488H176.487C176.459 183.844 176.165 183.312 175.605 182.892C175.073 182.444 174.415 182.22 173.631 182.22C173.603 182.22 173.491 182.22 173.295 182.22C173.127 182.22 173.043 182.22 173.043 182.22V181.8H176.613V184.488ZM211.765 181.212L223.315 206.748H219.997L211.051 184.95L211.765 181.212ZM203.659 203.934C203.351 204.774 203.393 205.432 203.785 205.908C204.177 206.356 204.625 206.58 205.129 206.58H205.465V207H197.443V206.58C197.443 206.58 197.499 206.58 197.611 206.58C197.723 206.58 197.779 206.58 197.779 206.58C198.367 206.58 198.969 206.384 199.585 205.992C200.201 205.572 200.733 204.886 201.181 203.934H203.659ZM211.765 181.212L212.059 184.11L202.441 206.874H199.795L209.749 185.538C209.749 185.538 209.819 185.37 209.959 185.034C210.127 184.698 210.309 184.292 210.505 183.816C210.729 183.312 210.925 182.822 211.093 182.346C211.261 181.87 211.359 181.492 211.387 181.212H211.765ZM216.721 197.214V198.474H205.591V197.214H216.721ZM218.863 203.934H222.055C222.475 204.886 222.993 205.572 223.609 205.992C224.225 206.384 224.813 206.58 225.373 206.58C225.373 206.58 225.429 206.58 225.541 206.58C225.653 206.58 225.709 206.58 225.709 206.58V207H217.099V206.58H217.435C217.911 206.58 218.345 206.356 218.737 205.908C219.129 205.432 219.171 204.774 218.863 203.934ZM242.848 181.17L266.116 203.094L266.536 207.588L243.268 185.538L242.848 181.17ZM242.932 204.396V207H239.782V206.58C239.782 206.58 239.894 206.58 240.118 206.58C240.37 206.58 240.496 206.58 240.496 206.58C241.14 206.58 241.686 206.37 242.134 205.95C242.582 205.53 242.806 205.012 242.806 204.396H242.932ZM244.696 204.396C244.696 205.012 244.92 205.53 245.368 205.95C245.844 206.37 246.39 206.58 247.006 206.58C247.006 206.58 247.118 206.58 247.342 206.58C247.594 206.58 247.72 206.58 247.72 206.58V207H244.57V204.396H244.696ZM242.848 181.17L244.654 183.522L244.696 207H242.806V186.42C242.806 184.992 242.736 183.76 242.596 182.724C242.484 181.688 242.428 181.17 242.428 181.17H242.848ZM266.536 181.8V202.212C266.536 203.108 266.564 203.976 266.62 204.816C266.676 205.628 266.732 206.3 266.788 206.832C266.872 207.336 266.914 207.588 266.914 207.588H266.536L264.688 205.362V181.8H266.536ZM266.41 184.404V181.8H269.56V182.22C269.56 182.22 269.434 182.22 269.182 182.22C268.958 182.22 268.846 182.22 268.846 182.22C268.23 182.22 267.684 182.43 267.208 182.85C266.76 183.27 266.536 183.788 266.536 184.404H266.41ZM264.688 184.404C264.66 183.788 264.422 183.27 263.974 182.85C263.526 182.43 262.98 182.22 262.336 182.22C262.336 182.22 262.21 182.22 261.958 182.22C261.734 182.22 261.622 182.22 261.622 182.22V181.8H264.772V184.404H264.688ZM299.524 181.212C300.812 181.212 302.016 181.31 303.136 181.506C304.284 181.674 305.362 181.954 306.37 182.346C307.406 182.71 308.386 183.186 309.31 183.774L310.234 189.696H309.856C309.464 188.044 308.82 186.686 307.924 185.622C307.056 184.558 305.922 183.774 304.522 183.27C303.122 182.738 301.442 182.472 299.482 182.472C297.354 182.472 295.478 182.962 293.854 183.942C292.258 184.894 291.012 186.266 290.116 188.058C289.22 189.822 288.772 191.936 288.772 194.4C288.772 196.836 289.22 198.95 290.116 200.742C291.012 202.534 292.272 203.92 293.896 204.9C295.52 205.852 297.396 206.328 299.524 206.328C300.7 206.328 301.82 206.202 302.884 205.95C303.948 205.698 304.97 205.306 305.95 204.774C306.958 204.214 307.896 203.514 308.764 202.674L308.806 197.088C308.834 196.556 308.666 196.15 308.302 195.87C307.966 195.59 307.49 195.45 306.874 195.45H306.286V195.03H313.972V195.45H313.384C312.124 195.45 311.494 196.01 311.494 197.13V202.17C310.85 202.982 309.968 203.808 308.848 204.648C307.728 205.488 306.384 206.188 304.816 206.748C303.276 207.308 301.512 207.588 299.524 207.588C296.752 207.56 294.33 207.014 292.258 205.95C290.214 204.886 288.618 203.374 287.47 201.414C286.322 199.454 285.748 197.116 285.748 194.4C285.748 191.656 286.322 189.304 287.47 187.344C288.618 185.384 290.228 183.872 292.3 182.808C294.372 181.744 296.78 181.212 299.524 181.212ZM335.036 181.8V207H332.348V181.8H335.036ZM346.334 205.698L346.25 207H334.952V205.698H346.334ZM348.686 200.994L346.376 207H339.992L341.42 205.698C342.82 205.698 343.94 205.502 344.78 205.11C345.648 204.69 346.348 204.13 346.88 203.43C347.412 202.702 347.874 201.89 348.266 200.994H348.686ZM332.432 204.312L332.978 207H329.324V206.58C329.324 206.58 329.422 206.58 329.618 206.58C329.814 206.58 329.912 206.58 329.912 206.58C330.612 206.58 331.186 206.356 331.634 205.908C332.082 205.46 332.32 204.928 332.348 204.312H332.432ZM334.91 184.488V181.8H338.018V182.22C338.018 182.22 337.934 182.22 337.766 182.22C337.598 182.22 337.514 182.22 337.514 182.22C336.842 182.22 336.254 182.444 335.75 182.892C335.274 183.312 335.036 183.844 335.036 184.488H334.91ZM332.432 184.488H332.348C332.32 183.844 332.068 183.312 331.592 182.892C331.116 182.444 330.528 182.22 329.828 182.22C329.828 182.22 329.744 182.22 329.576 182.22C329.408 182.22 329.324 182.22 329.324 182.22V181.8H332.432V184.488ZM369.338 181.8V207H366.65V181.8H369.338ZM380.636 205.698L380.552 207H369.254V205.698H380.636ZM378.662 193.77V195.03H369.254V193.77H378.662ZM380.594 181.8V183.102H369.254V181.8H380.594ZM382.988 200.994L380.678 207H374.294L375.722 205.698C377.122 205.698 378.242 205.502 379.082 205.11C379.95 204.69 380.65 204.13 381.182 203.43C381.714 202.702 382.176 201.89 382.568 200.994H382.988ZM378.662 194.946V197.34H378.2V196.794C378.2 196.318 378.06 195.912 377.78 195.576C377.5 195.212 377.066 195.03 376.478 195.03V194.946H378.662ZM378.662 191.46V193.854H376.478V193.77C377.066 193.77 377.5 193.602 377.78 193.266C378.06 192.902 378.2 192.482 378.2 192.006V191.46H378.662ZM380.594 182.976V185.874H380.132V185.244C380.132 184.656 379.936 184.152 379.544 183.732C379.18 183.312 378.676 183.102 378.032 183.102V182.976H380.594ZM380.594 181.128V182.22L375.806 181.8C376.674 181.8 377.598 181.73 378.578 181.59C379.558 181.422 380.23 181.268 380.594 181.128ZM366.734 204.312L367.28 207H363.626V206.58C363.626 206.58 363.724 206.58 363.92 206.58C364.116 206.58 364.214 206.58 364.214 206.58C364.914 206.58 365.488 206.356 365.936 205.908C366.384 205.46 366.622 204.928 366.65 204.312H366.734ZM366.734 184.446H366.65C366.622 183.802 366.384 183.27 365.936 182.85C365.488 182.43 364.914 182.22 364.214 182.22C364.214 182.22 364.116 182.22 363.92 182.22C363.724 182.22 363.626 182.22 363.626 182.22V181.8H367.28L366.734 184.446ZM436.702 181.8C439.474 181.8 441.868 182.304 443.884 183.312C445.9 184.32 447.454 185.776 448.546 187.68C449.638 189.556 450.184 191.796 450.184 194.4C450.184 197.004 449.638 199.244 448.546 201.12C447.454 202.996 445.9 204.452 443.884 205.488C441.868 206.496 439.474 207 436.702 207H427.756L427.672 205.74C429.632 205.74 431.27 205.74 432.586 205.74C433.93 205.74 434.952 205.74 435.652 205.74C436.352 205.74 436.702 205.74 436.702 205.74C439.95 205.74 442.498 204.732 444.346 202.716C446.222 200.672 447.16 197.9 447.16 194.4C447.16 190.9 446.222 188.142 444.346 186.126C442.498 184.082 439.95 183.06 436.702 183.06C436.702 183.06 436.338 183.06 435.61 183.06C434.882 183.06 433.818 183.06 432.418 183.06C431.018 183.06 429.296 183.06 427.252 183.06V181.8H436.702ZM428.344 181.8V207H425.614V181.8H428.344ZM425.698 204.27V207H422.674V206.58C422.674 206.58 422.758 206.58 422.926 206.58C423.122 206.58 423.22 206.58 423.22 206.58C423.892 206.58 424.452 206.356 424.9 205.908C425.348 205.432 425.586 204.886 425.614 204.27H425.698ZM425.698 184.53H425.614C425.586 183.858 425.334 183.312 424.858 182.892C424.41 182.444 423.85 182.22 423.178 182.22C423.178 182.22 423.094 182.22 422.926 182.22C422.758 182.22 422.674 182.22 422.674 182.22V181.8H425.698V184.53ZM467.226 177.6L470.166 177.012C470.166 177.544 470.124 178.244 470.04 179.112C469.956 179.98 469.788 180.876 469.536 181.8C469.312 182.696 468.99 183.536 468.57 184.32C468.15 185.076 467.604 185.636 466.932 186L466.554 185.79C466.834 184.558 467.03 183.522 467.142 182.682C467.254 181.842 467.31 181.044 467.31 180.288C467.338 179.504 467.31 178.608 467.226 177.6ZM501.285 181.212C503.245 181.212 505.079 181.534 506.787 182.178C508.523 182.794 510.035 183.69 511.323 184.866C512.639 186.042 513.661 187.442 514.389 189.066C515.117 190.662 515.481 192.44 515.481 194.4C515.481 196.36 515.117 198.152 514.389 199.776C513.661 201.372 512.639 202.758 511.323 203.934C510.035 205.11 508.523 206.02 506.787 206.664C505.079 207.28 503.245 207.588 501.285 207.588C499.325 207.588 497.491 207.28 495.783 206.664C494.075 206.02 492.563 205.11 491.247 203.934C489.959 202.758 488.951 201.372 488.223 199.776C487.495 198.152 487.131 196.36 487.131 194.4C487.131 192.44 487.495 190.662 488.223 189.066C488.951 187.442 489.959 186.042 491.247 184.866C492.563 183.69 494.075 182.794 495.783 182.178C497.491 181.534 499.325 181.212 501.285 181.212ZM501.285 206.328C503.357 206.328 505.233 205.824 506.913 204.816C508.593 203.808 509.923 202.408 510.903 200.616C511.883 198.824 512.373 196.752 512.373 194.4C512.373 192.02 511.883 189.948 510.903 188.184C509.923 186.392 508.593 184.992 506.913 183.984C505.233 182.976 503.357 182.472 501.285 182.472C499.241 182.472 497.379 182.976 495.699 183.984C494.019 184.992 492.689 186.392 491.709 188.184C490.729 189.948 490.239 192.02 490.239 194.4C490.239 196.752 490.729 198.824 491.709 200.616C492.689 202.408 494.019 203.808 495.699 204.816C497.379 205.824 499.241 206.328 501.285 206.328ZM537.185 181.8H542.603C543.919 181.8 545.095 181.954 546.131 182.262C547.195 182.57 548.091 183.018 548.819 183.606C549.575 184.194 550.149 184.908 550.541 185.748C550.933 186.588 551.129 187.54 551.129 188.604C551.129 189.78 550.849 190.872 550.289 191.88C549.729 192.888 548.945 193.714 547.937 194.358C546.957 195.002 545.837 195.394 544.577 195.534C545.053 195.73 545.599 196.164 546.215 196.836C546.859 197.508 547.405 198.166 547.853 198.81C547.853 198.81 548.035 199.062 548.399 199.566C548.763 200.042 549.225 200.644 549.785 201.372C550.373 202.072 550.947 202.744 551.507 203.388C552.095 204.032 552.627 204.592 553.103 205.068C553.607 205.544 554.139 205.922 554.699 206.202C555.287 206.454 555.959 206.58 556.715 206.58V207H555.413C553.873 207 552.599 206.804 551.591 206.412C550.611 206.02 549.813 205.544 549.197 204.984C548.581 204.396 548.049 203.836 547.601 203.304C547.489 203.164 547.223 202.814 546.803 202.254C546.411 201.666 545.977 201.036 545.501 200.364C545.025 199.692 544.591 199.09 544.199 198.558C543.807 197.998 543.569 197.662 543.485 197.55C542.925 196.822 542.281 196.178 541.553 195.618C540.825 195.03 540.055 194.736 539.243 194.736V194.316C539.243 194.316 539.467 194.33 539.915 194.358C540.363 194.358 540.937 194.344 541.637 194.316C542.421 194.288 543.205 194.232 543.989 194.148C544.773 194.036 545.501 193.728 546.173 193.224C546.873 192.72 547.419 191.88 547.811 190.704C547.923 190.396 548.007 190.032 548.063 189.612C548.119 189.192 548.133 188.758 548.105 188.31C548.077 187.526 547.923 186.826 547.643 186.21C547.391 185.594 547.013 185.062 546.509 184.614C546.033 184.166 545.459 183.816 544.787 183.564C544.115 183.312 543.359 183.172 542.519 183.144C541.203 183.088 540.055 183.074 539.075 183.102C538.095 183.13 537.605 183.13 537.605 183.102C537.605 183.074 537.563 182.962 537.479 182.766C537.423 182.542 537.353 182.332 537.269 182.136C537.213 181.912 537.185 181.8 537.185 181.8ZM537.689 181.8V207H535.001V181.8H537.689ZM535.127 204.312L535.631 207H532.061V206.58C532.061 206.58 532.159 206.58 532.355 206.58C532.551 206.58 532.649 206.58 532.649 206.58C533.321 206.58 533.881 206.356 534.329 205.908C534.777 205.46 535.015 204.928 535.043 204.312H535.127ZM535.127 184.446H535.043C535.015 183.802 534.777 183.27 534.329 182.85C533.881 182.43 533.321 182.22 532.649 182.22C532.649 182.22 532.551 182.22 532.355 182.22C532.159 182.22 532.061 182.22 532.061 182.22V181.8H535.631L535.127 184.446ZM537.563 204.312H537.689C537.717 204.928 537.955 205.46 538.403 205.908C538.851 206.356 539.411 206.58 540.083 206.58C540.083 206.58 540.167 206.58 540.335 206.58C540.531 206.58 540.629 206.58 540.629 206.58L540.671 207H537.059L537.563 204.312Z" fill="#402F23"/>
</svg>
